<svg id="svg" version="1.1" xmlns="http://www.w3.org/2000/svg" xmlns:xlink="http://www.w3.org/1999/xlink" width="400" height="400" viewBox="0, 0, 400,400"><g id="svgg"><path id="path0" d="M54.585 44.899 C 54.480 45.174,54.441 71.950,54.497 104.400 L 54.600 163.400 113.600 163.400 L 172.600 163.400 172.600 104.000 L 172.600 44.600 113.688 44.499 C 66.769 44.418,54.737 44.499,54.585 44.899 M222.985 44.899 C 222.880 45.174,222.841 71.950,222.897 104.400 L 223.000 163.400 282.101 163.501 L 341.203 163.603 341.101 104.101 L 341.000 44.600 282.088 44.499 C 235.169 44.418,223.137 44.499,222.985 44.899 M55.600 278.399 L 55.600 338.000 114.601 338.000 L 173.603 338.000 173.501 278.500 L 173.400 219.000 114.500 218.899 L 55.600 218.797 55.600 278.399 M224.183 219.300 C 224.078 219.575,224.038 228.080,224.096 238.200 L 224.200 256.600 243.400 256.600 L 262.600 256.600 262.704 237.700 L 262.808 218.800 243.591 218.800 C 228.587 218.800,224.333 218.910,224.183 219.300 M302.244 219.429 C 301.746 220.726,301.971 255.811,302.480 256.320 C 303.037 256.877,339.835 257.019,340.704 256.468 C 341.100 256.216,341.186 252.168,341.104 237.574 L 341.000 219.000 321.744 218.896 C 304.445 218.803,302.464 218.857,302.244 219.429 M267.540 275.800 C 267.507 282.070,267.462 287.425,267.440 287.700 C 267.409 288.092,270.565 288.200,282.000 288.200 L 296.600 288.200 296.706 276.300 L 296.812 264.400 282.206 264.400 L 267.600 264.400 267.540 275.800 M302.267 299.467 C 301.750 299.983,301.958 336.198,302.480 336.720 C 302.988 337.228,339.272 337.454,340.567 336.957 C 341.132 336.741,341.200 334.692,341.200 317.957 L 341.200 299.200 321.867 299.200 C 311.233 299.200,302.413 299.320,302.267 299.467 M223.070 300.263 C 222.735 300.599,222.708 336.495,223.043 337.367 C 223.260 337.932,225.342 338.000,242.435 338.000 L 261.585 338.000 261.803 337.100 C 261.924 336.605,261.972 328.100,261.911 318.200 L 261.800 300.200 242.570 300.096 C 231.994 300.039,223.219 300.114,223.070 300.263 " stroke="none" fill="#050505" fill-rule="evenodd"></path><path id="path1" d="M0.000 200.000 L 0.000 400.000 200.000 400.000 L 400.000 400.000 400.000 200.000 L 400.000 0.000 200.000 0.000 L 0.000 0.000 0.000 200.000 M173.600 103.992 L 173.600 164.385 172.700 164.602 C 172.205 164.721,145.250 164.770,112.800 164.710 L 53.800 164.600 53.697 104.600 C 53.641 71.600,53.680 44.375,53.785 44.100 C 53.936 43.703,66.306 43.600,113.787 43.600 L 173.600 43.600 173.600 103.992 M341.990 44.381 C 342.735 45.773,342.351 163.934,341.600 164.408 C 340.787 164.923,223.213 164.923,222.400 164.408 C 221.787 164.021,221.209 48.222,221.803 44.900 L 222.036 43.600 281.804 43.600 C 340.678 43.600,341.578 43.612,341.990 44.381 M174.320 218.080 C 175.018 218.778,175.018 338.022,174.320 338.720 C 173.622 339.418,55.578 339.418,54.880 338.720 C 53.989 337.829,54.206 218.553,55.100 218.032 C 56.184 217.401,173.688 217.448,174.320 218.080 M263.586 218.374 C 263.854 218.875,264.000 225.707,264.000 237.800 C 264.000 249.893,263.854 256.725,263.586 257.226 C 263.075 258.182,224.225 258.465,223.280 257.520 C 222.589 256.829,222.589 218.771,223.280 218.080 C 224.225 217.135,263.075 217.418,263.586 218.374 M341.600 217.992 C 342.120 218.320,342.200 220.965,342.200 237.800 C 342.200 254.635,342.120 257.280,341.600 257.608 C 340.944 258.023,302.897 258.166,301.833 257.757 C 300.984 257.431,300.853 218.207,301.700 217.865 C 302.649 217.482,340.986 217.604,341.600 217.992 M297.120 263.680 C 297.806 264.366,297.806 288.434,297.120 289.120 C 296.431 289.809,267.569 289.809,266.880 289.120 C 266.528 288.768,266.400 285.387,266.400 276.400 C 266.400 267.413,266.528 264.032,266.880 263.680 C 267.236 263.324,271.147 263.200,282.000 263.200 C 292.853 263.200,296.764 263.324,297.120 263.680 M342.010 299.026 C 342.629 300.655,342.526 336.475,341.900 337.328 C 341.439 337.957,339.847 338.001,321.400 337.905 L 301.400 337.800 301.296 318.400 C 301.239 307.730,301.278 298.775,301.383 298.500 C 301.533 298.109,305.948 298.000,321.597 298.000 L 341.620 298.000 342.010 299.026 M262.167 299.043 C 262.998 299.361,263.146 337.894,262.320 338.720 C 261.719 339.321,223.345 339.406,222.400 338.808 C 221.880 338.480,221.800 335.835,221.800 319.000 C 221.800 302.165,221.880 299.520,222.400 299.192 C 223.056 298.777,261.103 298.634,262.167 299.043 " stroke="none" fill="#fbfbfb" fill-rule="evenodd"></path><path id="path2" d="M222.503 163.600 C 222.681 164.254,340.608 164.752,341.259 164.101 C 341.424 163.936,314.895 163.846,282.305 163.903 C 235.098 163.984,222.978 163.903,222.695 163.503 C 222.430 163.128,222.381 163.153,222.503 163.600 M84.100 164.300 C 100.325 164.358,126.875 164.358,143.100 164.300 C 159.325 164.242,146.050 164.195,113.600 164.195 C 81.150 164.195,67.875 164.242,84.100 164.300 M55.067 218.667 C 54.696 219.037,54.729 337.909,55.100 338.138 C 55.265 338.240,55.400 311.341,55.400 278.362 C 55.400 245.383,55.385 218.400,55.367 218.400 C 55.348 218.400,55.213 218.520,55.067 218.667 M173.800 278.400 C 173.800 311.358,173.935 338.240,174.100 338.138 C 174.265 338.036,174.400 311.154,174.400 278.400 C 174.400 245.646,174.265 218.764,174.100 218.662 C 173.935 218.560,173.800 245.442,173.800 278.400 M223.467 218.667 C 223.097 219.037,223.129 256.709,223.500 256.938 C 223.665 257.040,223.800 248.411,223.800 237.762 C 223.800 227.113,223.785 218.400,223.767 218.400 C 223.748 218.400,223.613 218.520,223.467 218.667 M263.385 237.600 C 263.385 248.050,263.436 252.325,263.500 247.100 C 263.563 241.875,263.563 233.325,263.500 228.100 C 263.436 222.875,263.385 227.150,263.385 237.600 M266.978 276.400 C 266.978 283.110,267.032 285.855,267.099 282.500 C 267.166 279.145,267.166 273.655,267.099 270.300 C 267.032 266.945,266.978 269.690,266.978 276.400 M296.977 275.800 C 296.977 282.180,297.032 284.734,297.099 281.476 C 297.167 278.217,297.166 272.997,297.099 269.876 C 297.031 266.754,296.976 269.420,296.977 275.800 M274.700 289.099 C 278.715 289.165,285.285 289.165,289.300 289.099 C 293.315 289.034,290.030 288.981,282.000 288.981 C 273.970 288.981,270.685 289.034,274.700 289.099 " stroke="none" fill="#848484" fill-rule="evenodd"></path><path id="path3" d="M53.785 44.100 C 53.680 44.375,53.641 71.600,53.697 104.600 L 53.800 164.600 112.800 164.710 C 145.250 164.770,172.205 164.721,172.700 164.602 L 173.600 164.385 173.600 103.992 L 173.600 43.600 113.787 43.600 C 66.306 43.600,53.936 43.703,53.785 44.100 M221.803 44.900 C 221.209 48.222,221.787 164.021,222.400 164.408 C 223.213 164.923,340.787 164.923,341.600 164.408 C 342.351 163.934,342.735 45.773,341.990 44.381 C 341.578 43.612,340.678 43.600,281.804 43.600 L 222.036 43.600 221.803 44.900 M173.200 103.957 C 173.200 158.261,173.140 163.937,172.567 164.157 C 171.740 164.475,55.460 164.475,54.633 164.157 C 54.060 163.937,54.000 158.261,54.000 103.957 L 54.000 44.000 113.600 44.000 L 173.200 44.000 173.200 103.957 M341.501 104.100 L 341.400 164.200 282.000 164.200 L 222.600 164.200 222.499 104.100 L 222.397 44.000 282.000 44.000 L 341.603 44.000 341.501 104.100 M55.100 218.032 C 54.206 218.553,53.989 337.829,54.880 338.720 C 55.578 339.418,173.622 339.418,174.320 338.720 C 175.018 338.022,175.018 218.778,174.320 218.080 C 173.688 217.448,56.184 217.401,55.100 218.032 M223.280 218.080 C 222.589 218.771,222.589 256.829,223.280 257.520 C 224.225 258.465,263.075 258.182,263.586 257.226 C 263.854 256.725,264.000 249.893,264.000 237.800 C 264.000 225.707,263.854 218.875,263.586 218.374 C 263.075 217.418,224.225 217.135,223.280 218.080 M301.700 217.865 C 300.853 218.207,300.984 257.431,301.833 257.757 C 302.897 258.166,340.944 258.023,341.600 257.608 C 342.120 257.280,342.200 254.635,342.200 237.800 C 342.200 220.965,342.120 218.320,341.600 217.992 C 340.986 217.604,302.649 217.482,301.700 217.865 M174.200 278.400 L 174.200 338.200 114.600 338.200 L 55.000 338.200 54.897 278.800 C 54.841 246.130,54.880 219.174,54.985 218.899 C 55.137 218.499,67.289 218.418,114.688 218.499 L 174.200 218.600 174.200 278.400 M263.511 237.000 C 263.572 247.120,263.523 255.807,263.402 256.304 L 263.183 257.207 243.291 257.104 L 223.400 257.000 223.296 238.200 C 223.238 227.860,223.278 219.173,223.385 218.896 C 223.537 218.499,227.773 218.414,243.489 218.496 L 263.400 218.600 263.511 237.000 M341.600 237.804 L 341.600 257.207 321.700 257.104 L 301.800 257.000 301.696 238.200 C 301.638 227.860,301.678 219.175,301.783 218.900 C 301.933 218.509,306.306 218.400,321.787 218.400 L 341.600 218.400 341.600 237.804 M266.880 263.680 C 266.528 264.032,266.400 267.413,266.400 276.400 C 266.400 285.387,266.528 288.768,266.880 289.120 C 267.569 289.809,296.431 289.809,297.120 289.120 C 297.806 288.434,297.806 264.366,297.120 263.680 C 296.764 263.324,292.853 263.200,282.000 263.200 C 271.147 263.200,267.236 263.324,266.880 263.680 M297.106 276.152 C 297.181 284.637,297.080 288.263,296.757 288.652 C 296.134 289.402,268.028 289.468,267.280 288.720 C 266.756 288.196,266.556 264.777,267.071 264.262 C 267.221 264.113,274.016 264.038,282.171 264.095 L 297.000 264.200 297.106 276.152 M301.383 298.500 C 301.278 298.775,301.239 307.730,301.296 318.400 L 301.400 337.800 321.400 337.905 C 339.847 338.001,341.439 337.957,341.900 337.328 C 342.526 336.475,342.629 300.655,342.010 299.026 L 341.620 298.000 321.597 298.000 C 305.948 298.000,301.533 298.109,301.383 298.500 M341.400 318.000 L 341.400 337.400 321.600 337.400 L 301.800 337.400 301.696 318.400 C 301.639 307.950,301.679 299.173,301.785 298.896 C 301.937 298.499,306.134 298.414,321.689 298.496 L 341.400 298.600 341.400 318.000 M222.400 299.192 C 221.880 299.520,221.800 302.165,221.800 319.000 C 221.800 335.835,221.880 338.480,222.400 338.808 C 223.345 339.406,261.719 339.321,262.320 338.720 C 263.146 337.894,262.998 299.361,262.167 299.043 C 261.103 298.634,223.056 298.777,222.400 299.192 M262.400 319.004 L 262.400 338.407 242.500 338.304 L 222.600 338.200 222.496 319.400 C 222.438 309.060,222.478 300.375,222.583 300.100 C 222.733 299.709,227.106 299.600,242.587 299.600 L 262.400 299.600 262.400 319.004 " stroke="none" fill="#a9a9a9" fill-rule="evenodd"></path><path id="path4" d="M54.185 44.500 C 54.080 44.775,54.041 71.730,54.097 104.400 L 54.200 163.800 113.600 163.800 L 173.000 163.800 173.110 104.800 C 173.170 72.350,173.121 45.395,173.002 44.900 L 172.785 44.000 113.580 44.000 C 66.584 44.000,54.336 44.103,54.185 44.500 M222.643 44.631 C 222.277 45.586,222.363 162.922,222.731 163.501 C 222.984 163.900,235.148 163.982,282.224 163.901 L 341.400 163.800 341.400 104.000 L 341.400 44.200 282.143 44.099 C 228.367 44.007,222.864 44.056,222.643 44.631 M172.600 104.000 L 172.600 163.400 113.600 163.400 L 54.600 163.400 54.497 104.400 C 54.441 71.950,54.480 45.174,54.585 44.899 C 54.737 44.499,66.769 44.418,113.688 44.499 L 172.600 44.600 172.600 104.000 M341.101 104.101 L 341.203 163.603 282.101 163.501 L 223.000 163.400 222.897 104.400 C 222.841 71.950,222.880 45.174,222.985 44.899 C 223.137 44.499,235.169 44.418,282.088 44.499 L 341.000 44.600 341.101 104.101 M55.385 218.899 C 55.280 219.174,55.241 246.130,55.297 278.800 L 55.400 338.200 114.600 338.200 L 173.800 338.200 173.800 278.400 L 173.800 218.600 114.688 218.499 C 67.609 218.418,55.537 218.499,55.385 218.899 M223.783 218.900 C 223.678 219.175,223.638 227.860,223.696 238.200 L 223.800 257.000 243.400 257.000 L 263.000 257.000 263.104 237.700 L 263.208 218.400 243.591 218.400 C 228.267 218.400,223.933 218.509,223.783 218.900 M301.844 219.029 C 301.478 219.984,301.562 256.121,301.932 256.704 C 302.184 257.100,306.432 257.186,321.826 257.104 L 341.400 257.000 341.400 237.800 L 341.400 218.600 321.744 218.496 C 304.080 218.403,302.064 218.457,301.844 219.029 M173.501 278.500 L 173.603 338.000 114.601 338.000 L 55.600 338.000 55.600 278.399 L 55.600 218.797 114.500 218.899 L 173.400 219.000 173.501 278.500 M262.704 237.700 L 262.600 256.600 243.400 256.600 L 224.200 256.600 224.096 238.200 C 224.038 228.080,224.078 219.575,224.183 219.300 C 224.333 218.910,228.587 218.800,243.591 218.800 L 262.808 218.800 262.704 237.700 M341.104 237.574 C 341.186 252.168,341.100 256.216,340.704 256.468 C 339.835 257.019,303.037 256.877,302.480 256.320 C 301.971 255.811,301.746 220.726,302.244 219.429 C 302.464 218.857,304.445 218.803,321.744 218.896 L 341.000 219.000 341.104 237.574 M267.294 275.700 L 267.387 287.400 267.500 275.905 L 267.612 264.410 282.306 264.300 L 297.000 264.190 282.100 264.095 L 267.200 264.000 267.294 275.700 M296.658 287.792 C 296.445 288.349,294.770 288.407,281.809 288.310 C 273.774 288.249,267.200 288.335,267.200 288.500 C 267.200 289.197,296.698 288.843,296.967 288.143 C 297.105 287.781,297.147 287.413,297.059 287.325 C 296.971 287.237,296.791 287.448,296.658 287.792 M302.080 298.880 C 301.331 299.629,301.395 336.532,302.146 337.155 C 302.539 337.481,308.087 337.579,322.046 337.504 L 341.400 337.400 341.504 318.446 C 341.579 304.783,341.481 299.339,341.155 298.946 C 340.531 298.194,302.829 298.131,302.080 298.880 M341.200 317.957 C 341.200 334.692,341.132 336.741,340.567 336.957 C 339.272 337.454,302.988 337.228,302.480 336.720 C 301.958 336.198,301.750 299.983,302.267 299.467 C 302.413 299.320,311.233 299.200,321.867 299.200 L 341.200 299.200 341.200 317.957 M222.598 300.496 C 222.477 300.993,222.428 309.680,222.489 319.800 L 222.600 338.200 242.400 338.200 L 262.200 338.200 262.200 319.000 L 262.200 299.800 242.509 299.696 L 222.817 299.592 222.598 300.496 M261.911 318.200 C 261.972 328.100,261.924 336.605,261.803 337.100 L 261.585 338.000 242.435 338.000 C 225.342 338.000,223.260 337.932,223.043 337.367 C 222.708 336.495,222.735 300.599,223.070 300.263 C 223.219 300.114,231.994 300.039,242.570 300.096 L 261.800 300.200 261.911 318.200 " stroke="none" fill="#7c7c7c" fill-rule="evenodd"></path></g></svg>